# Blender 4.1.1
# www.blender.org
mtllib harddisk.mtl
o Plane
v -1.200000 0.000000 2.000000
v 1.200000 0.000000 2.000000
v -1.200000 0.000000 -2.000000
v 1.200000 0.000000 -2.000000
v -1.200000 0.420000 2.000000
v 1.200000 0.420000 2.000000
v -1.200000 0.420000 -2.000000
v 1.200000 0.420000 -2.000000
vn -0.0000 -1.0000 -0.0000
vn -0.0000 1.0000 -0.0000
vn -1.0000 -0.0000 -0.0000
vn -0.0000 -0.0000 -1.0000
vn -0.0000 -0.0000 1.0000
vn 1.0000 -0.0000 -0.0000
vt 0.000000 0.000000
vt 0.000000 1.000000
vt 1.000000 1.000000
vt 1.000000 0.000000
s 0
usemtl Material.001
f 1/1/1 3/2/1 4/3/1 2/4/1
f 5/1/2 6/4/2 8/3/2 7/2/2
f 3/2/3 1/1/3 5/1/3 7/2/3
f 4/3/4 3/2/4 7/2/4 8/3/4
f 1/1/5 2/4/5 6/4/5 5/1/5
f 2/4/6 4/3/6 8/3/6 6/4/6
